<svg width="24" height="24" viewBox="0 0 24 24" fill="none" xmlns="http://www.w3.org/2000/svg">
<path d="M7.79005 8.00001L16.2101 8.00001C16.5425 7.99952 16.8682 8.09319 17.1496 8.27016C17.431 8.44714 17.6565 8.70018 17.8001 9.00001C17.9681 9.35575 18.0328 9.75154 17.9868 10.1423C17.9409 10.533 17.7861 10.903 17.5401 11.21L13.3301 16.31C13.1648 16.5006 12.9606 16.6535 12.7311 16.7583C12.5016 16.8631 12.2523 16.9173 12.0001 16.9173C11.7478 16.9173 11.4985 16.8631 11.269 16.7583C11.0395 16.6535 10.8353 16.5006 10.6701 16.31L6.46005 11.21C6.21405 10.903 6.05924 10.533 6.01327 10.1423C5.9673 9.75154 6.03202 9.35575 6.20005 9.00001C6.3436 8.70018 6.56911 8.44714 6.8505 8.27016C7.13189 8.09319 7.45764 7.99952 7.79005 8.00001Z" fill="#393939"/>
</svg>
