<svg width="36" height="36" viewBox="0 0 36 36" fill="none" xmlns="http://www.w3.org/2000/svg">
<path d="M15.402 31.5C15.6653 31.956 16.044 32.3347 16.5 32.598C16.9561 32.8613 17.4734 32.9999 18 32.9999C18.5266 32.9999 19.0439 32.8613 19.4999 32.598C19.956 32.3347 20.3347 31.956 20.598 31.5" stroke="#F14A76" stroke-width="3.5" stroke-linecap="round" stroke-linejoin="round"/>
<path d="M4.893 22.989C4.69705 23.2038 4.56773 23.4709 4.52079 23.7578C4.47384 24.0447 4.51128 24.3391 4.62856 24.6051C4.74584 24.8711 4.93791 25.0973 5.18139 25.2562C5.42487 25.4151 5.70927 25.4998 6 25.5H30C30.2907 25.5001 30.5752 25.4157 30.8188 25.2572C31.0624 25.0986 31.2547 24.8726 31.3723 24.6068C31.4899 24.3409 31.5277 24.0466 31.4812 23.7597C31.4346 23.4727 31.3056 23.2055 31.11 22.9905C29.115 20.934 27 18.7485 27 12C27 9.61305 26.0518 7.32387 24.364 5.63604C22.6761 3.94821 20.387 3 18 3C15.6131 3 13.3239 3.94821 11.636 5.63604C9.94821 7.32387 9 9.61305 9 12C9 18.7485 6.8835 20.934 4.893 22.989Z" stroke="#F14A76" stroke-width="3" stroke-linecap="round" stroke-linejoin="round"/>
</svg>
