<svg width="20" height="20" viewBox="0 0 20 20" fill="none" xmlns="http://www.w3.org/2000/svg">
<path d="M3.33333 13.7498V16.6665C3.33333 17.1085 3.50893 17.5325 3.82149 17.845C4.13405 18.1576 4.55797 18.3332 5 18.3332H15C15.442 18.3332 15.866 18.1576 16.1785 17.845C16.4911 17.5325 16.6667 17.1085 16.6667 16.6665V13.7498M2.5 11.6665V10.8332C2.5 10.3911 2.67559 9.96722 2.98816 9.65466C3.30072 9.3421 3.72464 9.1665 4.16667 9.1665H15.8333C16.2754 9.1665 16.6993 9.3421 17.0118 9.65466C17.3244 9.96722 17.5 10.3911 17.5 10.8332V11.6665M10 6.6665V9.1665M10 6.6665C11.0517 6.6665 11.6667 5.85984 11.6667 4.479C11.6667 3.09817 10 1.6665 10 1.6665C10 1.6665 8.33333 3.09817 8.33333 4.479C8.33333 5.85984 8.94833 6.6665 10 6.6665Z" stroke="#535353" stroke-width="1.3125" stroke-linecap="round" stroke-linejoin="round"/>
<path d="M2.5 11.6665C2.5 12.3295 2.76339 12.9654 3.23223 13.4343C3.70107 13.9031 4.33696 14.1665 5 14.1665C5.66304 14.1665 6.29893 13.9031 6.76777 13.4343C7.23661 12.9654 7.5 12.3295 7.5 11.6665C7.5 12.3295 7.76339 12.9654 8.23223 13.4343C8.70107 13.9031 9.33696 14.1665 10 14.1665C10.663 14.1665 11.2989 13.9031 11.7678 13.4343C12.2366 12.9654 12.5 12.3295 12.5 11.6665C12.5 12.3295 12.7634 12.9654 13.2322 13.4343C13.7011 13.9031 14.337 14.1665 15 14.1665C15.663 14.1665 16.2989 13.9031 16.7678 13.4343C17.2366 12.9654 17.5 12.3295 17.5 11.6665" stroke="#535353" stroke-width="1.3125" stroke-linecap="round" stroke-linejoin="round"/>
</svg>
