<svg width="24" height="24" viewBox="0 0 24 24" fill="none" xmlns="http://www.w3.org/2000/svg">
<path d="M1.06327 8.37402C1.0113 8.24163 0.991021 8.10169 1.00364 7.96249C1.01625 7.82329 1.06151 7.68767 1.13671 7.56367C1.21192 7.43967 1.31555 7.32981 1.44145 7.24061C1.56736 7.15141 1.71298 7.08468 1.86968 7.04439C2.02638 7.00409 2.19097 6.99104 2.35369 7.00602C2.51642 7.02099 2.67396 7.06369 2.81697 7.13157C2.95999 7.19946 3.08558 7.29115 3.18628 7.4012C3.28698 7.51126 3.36075 7.63745 3.40322 7.77228C5.95346 15.0579 18.0518 15.0589 20.6045 7.77645C20.6502 7.64511 20.7259 7.52275 20.8271 7.41634C20.9282 7.30994 21.053 7.22158 21.1942 7.15631C21.3355 7.09104 21.4904 7.05013 21.6501 7.03593C21.8099 7.02173 21.9714 7.03451 22.1253 7.07355C22.2793 7.11258 22.4227 7.1771 22.5475 7.26342C22.6722 7.34974 22.7758 7.45617 22.8523 7.57664C22.9288 7.69711 22.9768 7.82926 22.9934 7.96554C23.0101 8.10182 22.9951 8.23956 22.9493 8.3709C22.5048 9.67584 21.7503 10.8888 20.7328 11.9344L22.2916 13.2652C22.5143 13.4618 22.6375 13.7253 22.6347 13.9987C22.6319 14.2722 22.5034 14.5337 22.2767 14.7271C22.05 14.9205 21.7434 15.0301 21.4228 15.0325C21.1023 15.0349 20.7935 14.9298 20.5629 14.7398L18.9601 13.3726C18.0953 13.9292 17.1398 14.375 16.1238 14.696L16.5603 16.0883C16.6068 16.2218 16.6216 16.3619 16.6036 16.5004C16.5856 16.6389 16.5353 16.7729 16.4555 16.8945C16.3758 17.0161 16.2684 17.1228 16.1395 17.2084C16.0106 17.294 15.863 17.3567 15.7052 17.3928C15.5475 17.4289 15.3828 17.4377 15.2211 17.4186C15.0593 17.3995 14.9036 17.353 14.7633 17.2817C14.6229 17.2105 14.5007 17.116 14.4039 17.0038C14.3071 16.8916 14.2376 16.764 14.1995 16.6285L13.7545 15.2133C12.5968 15.3593 11.4134 15.3593 10.2556 15.2133L9.8106 16.6285C9.77255 16.764 9.70307 16.8916 9.60625 17.0038C9.50943 17.116 9.38724 17.2105 9.24689 17.2817C9.10653 17.353 8.95087 17.3995 8.78908 17.4186C8.6273 17.4377 8.46267 17.4289 8.30492 17.3928C8.14717 17.3567 7.9995 17.294 7.87063 17.2084C7.74176 17.1228 7.6343 17.0161 7.55459 16.8945C7.47489 16.7729 7.42455 16.6389 7.40657 16.5004C7.38858 16.3619 7.4033 16.2218 7.44986 16.0883L7.88631 14.696C6.8703 14.3747 5.91477 13.9285 5.04999 13.3715L3.44846 14.7398C3.21922 14.9356 2.90818 15.0457 2.58376 15.0459C2.25934 15.0461 1.94811 14.9364 1.71855 14.7408C1.48899 14.5453 1.35989 14.28 1.35966 14.0032C1.35944 13.7265 1.48809 13.461 1.71733 13.2652L3.27608 11.9355C2.3176 10.9593 1.55228 9.77253 1.06082 8.37507L1.06327 8.37402Z" fill="black"/>
</svg>
