<svg width="20" height="20" viewBox="0 0 20 20" fill="none" xmlns="http://www.w3.org/2000/svg">
<path d="M17.824 4.86572C17.8291 4.90992 17.8337 4.95499 17.8337 5.00049V15.0005C17.8336 15.6409 17.3072 16.1665 16.6667 16.1665H3.33374C2.69332 16.1665 2.16693 15.6409 2.16675 15.0005V5.00049C2.16675 4.95505 2.16941 4.90986 2.17456 4.86572L3.06812 5.42432L9.73511 9.59131L9.99976 9.75635L10.2654 9.59131L16.9314 5.42432L17.824 4.86572ZM16.4021 6.24268L9.99976 10.2437L3.59839 6.24268L2.83374 5.76514V15.5005H17.1667V5.76514L16.4021 6.24268ZM3.33374 3.8335H16.6667C17.1287 3.8335 17.53 4.10766 17.7185 4.50049H2.28198C2.47052 4.10773 2.87187 3.8335 3.33374 3.8335Z" stroke="#535353"/>
</svg>
