<svg width="25" height="24" viewBox="0 0 25 24" fill="none" xmlns="http://www.w3.org/2000/svg">
<mask id="mask0_149_21643" style="mask-type:luminance" maskUnits="userSpaceOnUse" x="2" y="2" width="21" height="20">
<path d="M22.5 2H2.5V22H22.5V2Z" fill="white"/>
</mask>
<g mask="url(#mask0_149_21643)">
<path d="M22.1 12.2273C22.1 11.5182 22.0364 10.8364 21.9182 10.1818H12.5V14.05H17.8818C17.65 15.3 16.9455 16.3591 15.8864 17.0682V19.5773H19.1182C21.0091 17.8364 22.1 15.2727 22.1 12.2273Z" fill="#4285F4"/>
<path d="M12.5001 22C15.2001 22 17.4637 21.1045 19.1182 19.5773L15.8864 17.0682C14.991 17.6682 13.8455 18.0227 12.5001 18.0227C9.89552 18.0227 7.69102 16.2636 6.90462 13.9H3.56372V16.4909C5.20922 19.7591 8.59102 22 12.5001 22Z" fill="#34A853"/>
<path d="M6.9045 13.9001C6.7045 13.3001 6.5909 12.6592 6.5909 12.0001C6.5909 11.341 6.7045 10.7001 6.9045 10.1001V7.50916H3.5636C2.8864 8.85916 2.5 10.3865 2.5 12.0001C2.5 13.6137 2.8864 15.141 3.5636 16.491L6.9045 13.9001Z" fill="#FBBC04"/>
<path d="M12.5001 5.9773C13.9682 5.9773 15.2864 6.4818 16.3228 7.4727L19.191 4.6045C17.4592 2.9909 15.1955 2 12.5001 2C8.59102 2 5.20922 4.2409 3.56372 7.5091L6.90462 10.1C7.69102 7.7364 9.89552 5.9773 12.5001 5.9773Z" fill="#E94235"/>
</g>
</svg>
