<svg width="27" height="27" viewBox="0 0 27 27" fill="none" xmlns="http://www.w3.org/2000/svg">
<path d="M8.65369 2.67475C8.34718 2.98135 8.17499 3.39714 8.17499 3.83068C8.17499 4.26422 8.34718 4.68001 8.65369 4.98661L16.7469 13.0798L8.65369 21.173C8.35586 21.4813 8.19107 21.8943 8.19479 22.323C8.19852 22.7517 8.37047 23.1618 8.67361 23.4649C8.97675 23.768 9.38682 23.94 9.81551 23.9437C10.2442 23.9474 10.6572 23.7826 10.9656 23.4848L20.2147 14.2357C20.5212 13.9291 20.6934 13.5133 20.6934 13.0798C20.6934 12.6462 20.5212 12.2305 20.2147 11.9238L10.9656 2.67475C10.659 2.36823 10.2432 2.19604 9.80962 2.19604C9.37608 2.19604 8.96029 2.36823 8.65369 2.67475Z" fill="white"/>
</svg>
