<svg width="38" height="39" viewBox="0 0 38 39" fill="none" xmlns="http://www.w3.org/2000/svg">
<path fill-rule="evenodd" clip-rule="evenodd" d="M19.4286 10.4921C14.224 10.4921 10 13.7732 10 17.8086C10 20.3261 11.6311 22.5229 14.1203 23.8618L13.0737 27.6992C13.054 27.7755 13.058 27.8561 13.0854 27.93C13.1127 28.004 13.162 28.0678 13.2266 28.113C13.2913 28.1581 13.3682 28.1824 13.447 28.1826C13.5258 28.1828 13.6029 28.1589 13.6677 28.1141L18.25 25.0686C18.6366 25.0686 19.0326 25.1346 19.4286 25.1346C24.6331 25.1346 28.8571 21.8535 28.8571 17.8086C28.8571 13.7638 24.6331 10.4921 19.4286 10.4921Z" fill="#393939"/>
</svg>
