<svg width="26" height="26" viewBox="0 0 26 26" fill="none" xmlns="http://www.w3.org/2000/svg">
<path d="M12.9997 18.4167C12.425 18.4167 11.8739 18.1884 11.4676 17.7821C11.0613 17.3758 10.833 16.8247 10.833 16.25C10.833 15.0475 11.7972 14.0834 12.9997 14.0834C13.5743 14.0834 14.1254 14.3116 14.5317 14.718C14.9381 15.1243 15.1663 15.6754 15.1663 16.25C15.1663 16.8247 14.9381 17.3758 14.5317 17.7821C14.1254 18.1884 13.5743 18.4167 12.9997 18.4167ZM19.4997 21.6667V10.8334H6.49967V21.6667H19.4997ZM19.4997 8.66671C20.0743 8.66671 20.6254 8.89498 21.0317 9.30131C21.4381 9.70764 21.6663 10.2587 21.6663 10.8334V21.6667C21.6663 22.2413 21.4381 22.7924 21.0317 23.1988C20.6254 23.6051 20.0743 23.8334 19.4997 23.8334H6.49967C5.92504 23.8334 5.37394 23.6051 4.96761 23.1988C4.56128 22.7924 4.33301 22.2413 4.33301 21.6667V10.8334C4.33301 9.63087 5.29717 8.66671 6.49967 8.66671H7.58301V6.50004C7.58301 5.06345 8.15369 3.6857 9.16951 2.66988C10.1853 1.65406 11.5631 1.08337 12.9997 1.08337C13.711 1.08337 14.4154 1.22348 15.0725 1.49569C15.7297 1.76791 16.3269 2.1669 16.8298 2.66988C17.3328 3.17286 17.7318 3.76999 18.004 4.42717C18.2762 5.08435 18.4163 5.78871 18.4163 6.50004V8.66671H19.4997ZM12.9997 3.25004C12.1377 3.25004 11.3111 3.59245 10.7016 4.20194C10.0921 4.81144 9.74967 5.63809 9.74967 6.50004V8.66671H16.2497V6.50004C16.2497 5.63809 15.9073 4.81144 15.2978 4.20194C14.6883 3.59245 13.8616 3.25004 12.9997 3.25004Z" fill="#535353"/>
</svg>
