<svg width="26" height="26" viewBox="0 0 26 26" fill="none" xmlns="http://www.w3.org/2000/svg">
<path d="M13 3.25H5.41667C4.84203 3.25 4.29093 3.47827 3.8846 3.8846C3.47827 4.29093 3.25 4.84203 3.25 5.41667V20.5833C3.25 21.158 3.47827 21.7091 3.8846 22.1154C4.29093 22.5217 4.84203 22.75 5.41667 22.75H20.5833C21.158 22.75 21.7091 22.5217 22.1154 22.1154C22.5217 21.7091 22.75 21.158 22.75 20.5833V13" stroke="#535353" stroke-width="2" stroke-linecap="round" stroke-linejoin="round"/>
<path d="M19.906 2.84375C20.337 2.41277 20.9215 2.17065 21.531 2.17065C22.1405 2.17065 22.725 2.41277 23.156 2.84375C23.587 3.27473 23.8291 3.85926 23.8291 4.46875C23.8291 5.07824 23.587 5.66277 23.156 6.09375L13.3919 15.8589C13.1347 16.1159 12.8169 16.3041 12.4679 16.406L9.35544 17.316C9.26222 17.3432 9.16341 17.3448 9.06934 17.3207C8.97528 17.2966 8.88942 17.2477 8.82076 17.179C8.7521 17.1104 8.70316 17.0245 8.67906 16.9304C8.65496 16.8364 8.65659 16.7376 8.68378 16.6443L9.59378 13.5319C9.69618 13.1831 9.88469 12.8657 10.1419 12.6089L19.906 2.84375Z" stroke="#535353" stroke-width="2" stroke-linecap="round" stroke-linejoin="round"/>
</svg>
