<svg width="25" height="24" viewBox="0 0 25 24" fill="none" xmlns="http://www.w3.org/2000/svg">
<path d="M3.93086 10.529L1.14258 7.73711M9.23558 7.10397L8.09988 3.42859M21.2114 10.529L23.9997 7.73889M15.9067 7.10397L17.0424 3.42859M12.5711 6.61571C5.08266 6.61571 1.93846 13.3512 1.93846 13.4907C1.93846 13.6302 5.08266 20.364 12.5711 20.364C20.0596 20.364 23.2038 13.6302 23.2038 13.4907C23.2038 13.3512 20.0596 6.61571 12.5711 6.61571Z" stroke="black" stroke-width="2" stroke-linecap="round" stroke-linejoin="round"/>
<path d="M9.5414 12.7969C9.44457 13.1968 9.4281 13.6119 9.49294 14.0182C9.55778 14.4245 9.70263 14.8139 9.91911 15.1638C10.1356 15.5137 10.4194 15.8172 10.754 16.0565C11.0886 16.2959 11.4675 16.4665 11.8685 16.5583C12.2696 16.6502 12.6849 16.6615 13.0904 16.5917C13.4958 16.5218 13.8834 16.3721 14.2306 16.1513C14.5778 15.9305 14.8777 15.643 15.1129 15.3054C15.3481 14.9679 15.514 14.5869 15.6009 14.1848C15.6977 13.7849 15.7142 13.3697 15.6493 12.9634C15.5845 12.5571 15.4396 12.1677 15.2232 11.8178C15.0067 11.4679 14.7229 11.1645 14.3883 10.9251C14.0536 10.6857 13.6748 10.5152 13.2737 10.4233C12.8727 10.3314 12.4574 10.3201 12.0519 10.39C11.6464 10.4599 11.2589 10.6095 10.9117 10.8303C10.5645 11.0511 10.2646 11.3386 10.0294 11.6762C9.79414 12.0138 9.62828 12.3947 9.5414 12.7969Z" stroke="black" stroke-width="2" stroke-linecap="round" stroke-linejoin="round"/>
</svg>
