<svg width="15" height="14" viewBox="0 0 15 14" fill="none" xmlns="http://www.w3.org/2000/svg">
<path d="M1 7C1 3.42721 3.81293 0.5 7.3211 0.5C9.13105 0.50005 10.7589 1.28244 11.908 2.52848L12.9853 1.41758C13.1528 1.24494 13.4086 1.19161 13.6316 1.28196C13.8545 1.37243 14 1.5887 14 1.82924V4.78396C14 5.11033 13.7358 5.37452 13.4094 5.37452H10.5442C10.3068 5.37448 10.0923 5.2324 9.99978 5.01384C9.90754 4.79536 9.95489 4.54257 10.12 4.3723L11.0828 3.37874C10.1416 2.332 8.80323 1.68117 7.3211 1.68112C4.49969 1.68112 2.18112 4.0454 2.18112 7C2.18112 9.9546 4.49969 12.3189 7.3211 12.3189C9.58586 12.3188 11.5241 10.7979 12.2033 8.66684C12.3026 8.35619 12.635 8.18498 12.9458 8.28403C13.2565 8.38335 13.4277 8.71578 13.3286 9.02656C12.5039 11.6137 10.1349 13.4999 7.3211 13.5C3.81293 13.5 1 10.5728 1 7Z" fill="#535353" stroke="#535353" stroke-linecap="round" stroke-linejoin="round"/>
</svg>
