<svg width="38" height="38" viewBox="0 0 38 38" fill="none" xmlns="http://www.w3.org/2000/svg">
<path d="M11.0834 6.33331C9.82358 6.33331 8.6154 6.83376 7.7246 7.72456C6.8338 8.61535 6.33335 9.82353 6.33335 11.0833V14.782C4.46185 15.6718 3.16669 17.5813 3.16669 19.7916V26.9166C3.16617 27.8993 3.47046 28.858 4.03761 29.6605C4.60476 30.4631 5.40686 31.0699 6.33335 31.3975V33.25C6.33335 33.6699 6.50017 34.0726 6.7971 34.3696C7.09403 34.6665 7.49676 34.8333 7.91669 34.8333C8.33661 34.8333 8.73934 34.6665 9.03627 34.3696C9.33321 34.0726 9.50002 33.6699 9.50002 33.25V31.6666H28.5V33.25C28.5 33.6699 28.6668 34.0726 28.9638 34.3696C29.2607 34.6665 29.6634 34.8333 30.0834 34.8333C30.5033 34.8333 30.906 34.6665 31.2029 34.3696C31.4999 34.0726 31.6667 33.6699 31.6667 33.25V31.3975C32.5932 31.0699 33.3953 30.4631 33.9624 29.6605C34.5296 28.858 34.8339 27.8993 34.8334 26.9166V19.7916C34.8334 17.5813 33.5382 15.675 31.6667 14.782V11.0833C31.6667 9.82353 31.1662 8.61535 30.2754 7.72456C29.3846 6.83376 28.1765 6.33331 26.9167 6.33331H11.0834ZM30.0834 28.5H7.91669C7.49676 28.5 7.09403 28.3332 6.7971 28.0362C6.50017 27.7393 6.33335 27.3366 6.33335 26.9166V19.7916C6.33335 19.1618 6.58358 18.5577 7.02898 18.1123C7.47437 17.6669 8.07846 17.4166 8.70835 17.4166C9.33824 17.4166 9.94233 17.6669 10.3877 18.1123C10.8331 18.5577 11.0834 19.1618 11.0834 19.7916V20.5833C11.0834 21.0032 11.2502 21.406 11.5471 21.7029C11.844 21.9998 12.2468 22.1666 12.6667 22.1666H25.3334C25.7533 22.1666 26.156 21.9998 26.4529 21.7029C26.7499 21.406 26.9167 21.0032 26.9167 20.5833V19.7916C26.9167 19.1618 27.1669 18.5577 27.6123 18.1123C28.0577 17.6669 28.6618 17.4166 29.2917 17.4166C29.9216 17.4166 30.5257 17.6669 30.9711 18.1123C31.4165 18.5577 31.6667 19.1618 31.6667 19.7916V26.9166C31.6667 27.3366 31.4999 27.7393 31.2029 28.0362C30.906 28.3332 30.5033 28.5 30.0834 28.5ZM28.5 14.307C27.316 14.4779 26.2192 15.0274 25.3733 15.8732C24.5274 16.7191 23.9779 17.816 23.807 19H14.193C14.0221 17.816 13.4726 16.7191 12.6268 15.8732C11.7809 15.0274 10.684 14.4779 9.50002 14.307V11.0833C9.50002 10.6634 9.66684 10.2607 9.96377 9.96373C10.2607 9.6668 10.6634 9.49998 11.0834 9.49998H26.9167C27.3366 9.49998 27.7393 9.6668 28.0363 9.96373C28.3332 10.2607 28.5 10.6634 28.5 11.0833V14.307Z" fill="#F59E0B"/>
</svg>
