<svg width="24" height="24" viewBox="0 0 24 24" fill="none" xmlns="http://www.w3.org/2000/svg">
<path d="M11.5322 3.67285C11.6944 3.24027 12.3056 3.24027 12.4678 3.67285L14.2881 8.52637C14.5076 9.11182 15.0681 9.5 15.6934 9.5H20.2383C20.7057 9.50028 20.9168 10.0845 20.5576 10.3838L17.1484 13.2256C16.7172 13.585 16.5228 14.1551 16.6445 14.7031L17.9463 20.5605C18.0457 21.0081 17.5401 21.3427 17.167 21.0762L12.8721 18.0088C12.3505 17.6363 11.6495 17.6363 11.1279 18.0088L6.83301 21.0762C6.45993 21.3427 5.95425 21.0081 6.05371 20.5605L7.35547 14.7031C7.47717 14.1551 7.28283 13.585 6.85156 13.2256L3.44238 10.3838C3.08321 10.0845 3.2943 9.50028 3.76172 9.5H8.30664C8.93191 9.5 9.49237 9.11182 9.71191 8.52637L11.5322 3.67285Z" stroke="#AAAAAA" stroke-linejoin="round"/>
</svg>
